<svg width="3364" height="60" viewBox="0 0 3364 60" fill="none" xmlns="http://www.w3.org/2000/svg">
<g clip-path="url(#clip0_346_181)">
<path fill-rule="evenodd" clip-rule="evenodd" d="M1607.19 17.0982C1619.7 11.3962 1638.34 6.46373 1661.48 2.73571H1661.48C1670.85 1.71439 1681.92 1.81514 1690.89 3.00287C1699.86 4.19055 1705.51 6.30334 1705.9 8.61771C1705.94 9.28043 1705.54 9.9309 1704.75 10.5519H1711.76V59.7945H0V11.2688V11.2684V10.5519H0.156227C1.10663 8.40023 6.60326 6.46481 15.0417 5.34772C24.007 4.16 35.0798 4.05924 44.4512 5.08056C67.5942 8.80855 86.234 13.741 98.7454 19.443C116.944 26.4197 127.127 29.7019 143.785 29.7019C160.443 29.7019 170.006 26.693 189.128 19.443L189.207 19.4131C208.329 12.166 234.242 2.34485 287.842 2.34485C341.199 2.34485 367.726 12.3449 386.22 19.3167L386.555 19.443C405.064 26.4197 415.861 29.7019 431.905 29.7019C447.949 29.7019 457.816 26.693 476.945 19.443L477.024 19.4132C496.145 12.166 522.058 2.34485 575.658 2.34485C629.027 2.34485 655.56 12.3513 674.048 19.3236L674.365 19.443C692.873 26.4197 703.368 29.7019 719.715 29.7019C736.069 29.7019 746.556 26.2823 765.065 19.443C777.577 13.741 796.216 8.80859 819.359 5.08056H819.355C820.845 4.91825 822.756 4.69362 824.954 4.43535C836.586 3.06854 856.235 0.759579 863.776 1.75855C864.638 1.87266 865.331 2.02844 865.879 2.21889C872.748 1.85854 880.072 2.0269 886.576 2.73571C909.719 6.4637 928.358 11.3962 940.87 17.0982C959.068 24.0749 969.252 27.3571 985.91 27.3571C1002.57 27.3571 1012.13 24.3482 1031.25 17.0982L1031.33 17.0683C1050.45 9.82111 1076.37 0 1129.97 0C1183.32 0 1209.85 10 1228.34 16.9719L1228.68 17.0982C1247.19 24.0749 1257.98 27.3571 1274.03 27.3571C1290.07 27.3571 1299.94 24.3482 1319.07 17.0982L1319.15 17.0683C1338.27 9.82117 1364.18 0 1417.78 0C1471.15 0 1497.68 10.0065 1516.17 16.9788L1516.49 17.0982C1535 24.0749 1545.49 27.3571 1561.84 27.3571C1578.19 27.3571 1588.68 23.9374 1607.19 17.0982Z" fill="white"/>
</g>
<g clip-path="url(#clip1_346_181)">
<path fill-rule="evenodd" clip-rule="evenodd" d="M3267.19 17.0982C3279.7 11.3962 3298.34 6.46373 3321.48 2.73571H3321.48C3330.85 1.71439 3341.92 1.81514 3350.89 3.00287C3359.86 4.19055 3365.51 6.30334 3365.9 8.61771C3365.94 9.28043 3365.54 9.9309 3364.75 10.5519H3371.76V59.7945H1660V11.2688V11.2684V10.5519H1660.16C1661.11 8.40023 1666.6 6.46481 1675.04 5.34772C1684.01 4.16 1695.08 4.05924 1704.45 5.08056C1727.59 8.80855 1746.23 13.741 1758.75 19.443C1776.94 26.4197 1787.13 29.7019 1803.79 29.7019C1820.44 29.7019 1830.01 26.693 1849.13 19.443L1849.21 19.4131C1868.33 12.166 1894.24 2.34485 1947.84 2.34485C2001.2 2.34485 2027.73 12.3449 2046.22 19.3167L2046.56 19.443C2065.06 26.4197 2075.86 29.7019 2091.9 29.7019C2107.95 29.7019 2117.82 26.693 2136.94 19.443L2137.02 19.4132C2156.15 12.166 2182.06 2.34485 2235.66 2.34485C2289.03 2.34485 2315.56 12.3513 2334.05 19.3236L2334.36 19.443C2352.87 26.4197 2363.37 29.7019 2379.71 29.7019C2396.07 29.7019 2406.56 26.2823 2425.06 19.443C2437.58 13.741 2456.22 8.80859 2479.36 5.08056H2479.36C2480.84 4.91825 2482.76 4.69362 2484.95 4.43535C2496.59 3.06854 2516.24 0.759579 2523.78 1.75855C2524.64 1.87266 2525.33 2.02844 2525.88 2.21889C2532.75 1.85854 2540.07 2.0269 2546.58 2.73571C2569.72 6.4637 2588.36 11.3962 2600.87 17.0982C2619.07 24.0749 2629.25 27.3571 2645.91 27.3571C2662.57 27.3571 2672.13 24.3482 2691.25 17.0982L2691.33 17.0683C2710.45 9.82111 2736.37 0 2789.97 0C2843.32 0 2869.85 10 2888.34 16.9719L2888.68 17.0982C2907.19 24.0749 2917.98 27.3571 2934.03 27.3571C2950.07 27.3571 2959.94 24.3482 2979.07 17.0982L2979.15 17.0683C2998.27 9.82117 3024.18 0 3077.78 0C3131.15 0 3157.68 10.0065 3176.17 16.9788L3176.49 17.0982C3195 24.0749 3205.49 27.3571 3221.84 27.3571C3238.19 27.3571 3248.68 23.9374 3267.19 17.0982Z" fill="white"/>
</g>
<defs>
<clipPath id="clip0_346_181">
<rect width="1704" height="60" fill="white"/>
</clipPath>
<clipPath id="clip1_346_181">
<rect width="1704" height="60" fill="white" transform="translate(1660)"/>
</clipPath>
</defs>
</svg>
