<svg width="3368" height="60" viewBox="0 0 3368 60" fill="none" xmlns="http://www.w3.org/2000/svg">
<path fill-rule="evenodd" clip-rule="evenodd" d="M3263.19 17.0982C3275.7 11.3962 3294.34 6.46373 3317.48 2.73571H3317.48C3326.85 1.71439 3337.92 1.81514 3346.89 3.00287C3355.86 4.19055 3361.51 6.30334 3361.9 8.61771C3361.94 9.28043 3361.54 9.9309 3360.75 10.5519H3367.76V59.7945H1656V11.2688V11.2684V10.5519H1656.16C1657.11 8.40023 1662.6 6.46481 1671.04 5.34772C1680.01 4.16 1691.08 4.05924 1700.45 5.08056C1723.59 8.80855 1742.23 13.741 1754.75 19.443C1772.94 26.4197 1783.13 29.7019 1799.79 29.7019C1816.44 29.7019 1826.01 26.693 1845.13 19.443L1845.21 19.4131C1864.33 12.166 1890.24 2.34485 1943.84 2.34485C1997.2 2.34485 2023.73 12.3449 2042.22 19.3167L2042.56 19.443C2061.06 26.4197 2071.86 29.7019 2087.9 29.7019C2103.95 29.7019 2113.82 26.693 2132.94 19.443L2133.02 19.4132C2152.15 12.166 2178.06 2.34485 2231.66 2.34485C2285.03 2.34485 2311.56 12.3513 2330.05 19.3236L2330.36 19.443C2348.87 26.4197 2359.37 29.7019 2375.71 29.7019C2392.07 29.7019 2402.56 26.2823 2421.06 19.443C2433.58 13.741 2452.22 8.80859 2475.36 5.08056H2475.36C2476.84 4.91825 2478.76 4.69362 2480.95 4.43535C2492.59 3.06854 2512.24 0.759579 2519.78 1.75855C2520.64 1.87266 2521.33 2.02844 2521.88 2.21889C2528.75 1.85854 2536.07 2.0269 2542.58 2.73571C2565.72 6.4637 2584.36 11.3962 2596.87 17.0982C2615.07 24.0749 2625.25 27.3571 2641.91 27.3571C2658.57 27.3571 2668.13 24.3482 2687.25 17.0982L2687.33 17.0683C2706.45 9.82111 2732.37 0 2785.97 0C2839.32 0 2865.85 10 2884.34 16.9719L2884.68 17.0982C2903.19 24.0749 2913.98 27.3571 2930.03 27.3571C2946.07 27.3571 2955.94 24.3482 2975.07 17.0982L2975.15 17.0683C2994.27 9.82117 3020.18 0 3073.78 0C3127.15 0 3153.68 10.0065 3172.17 16.9788L3172.49 17.0982C3191 24.0749 3201.49 27.3571 3217.84 27.3571C3234.19 27.3571 3244.68 23.9374 3263.19 17.0982Z" fill="white"/>
<path fill-rule="evenodd" clip-rule="evenodd" d="M1607.19 17.0982C1619.7 11.3962 1638.34 6.46373 1661.48 2.73571H1661.48C1670.85 1.71439 1681.92 1.81514 1690.89 3.00287C1699.86 4.19055 1705.51 6.30334 1705.9 8.61771C1705.94 9.28043 1705.54 9.9309 1704.75 10.5519H1711.76V59.7945H0V11.2688V11.2684V10.5519H0.156227C1.10663 8.40023 6.60326 6.46481 15.0417 5.34772C24.007 4.16 35.0798 4.05924 44.4512 5.08056C67.5942 8.80855 86.234 13.741 98.7454 19.443C116.944 26.4197 127.127 29.7019 143.785 29.7019C160.443 29.7019 170.006 26.693 189.128 19.443L189.207 19.4131C208.329 12.166 234.242 2.34485 287.842 2.34485C341.199 2.34485 367.726 12.3449 386.22 19.3167L386.555 19.443C405.064 26.4197 415.861 29.7019 431.905 29.7019C447.949 29.7019 457.816 26.693 476.945 19.443L477.024 19.4132C496.145 12.166 522.058 2.34485 575.658 2.34485C629.027 2.34485 655.56 12.3513 674.048 19.3236L674.365 19.443C692.873 26.4197 703.368 29.7019 719.715 29.7019C736.069 29.7019 746.556 26.2823 765.065 19.443C777.577 13.741 796.216 8.80859 819.359 5.08056H819.355C820.845 4.91825 822.756 4.69362 824.954 4.43535C836.586 3.06854 856.235 0.759579 863.776 1.75855C864.638 1.87266 865.331 2.02844 865.879 2.21889C872.748 1.85854 880.072 2.0269 886.576 2.73571C909.719 6.4637 928.358 11.3962 940.87 17.0982C959.068 24.0749 969.252 27.3571 985.91 27.3571C1002.57 27.3571 1012.13 24.3482 1031.25 17.0982L1031.33 17.0683C1050.45 9.82111 1076.37 0 1129.97 0C1183.32 0 1209.85 10 1228.34 16.9719L1228.68 17.0982C1247.19 24.0749 1257.98 27.3571 1274.03 27.3571C1290.07 27.3571 1299.94 24.3482 1319.07 17.0982L1319.15 17.0683C1338.27 9.82117 1364.18 0 1417.78 0C1471.15 0 1497.68 10.0065 1516.17 16.9788L1516.49 17.0982C1535 24.0749 1545.49 27.3571 1561.84 27.3571C1578.19 27.3571 1588.68 23.9374 1607.19 17.0982Z" fill="white"/>
</svg>
