<svg width="146" height="62" viewBox="0 0 146 62" fill="none" xmlns="http://www.w3.org/2000/svg">
<g clip-path="url(#clip0_346_57)">
<path fill-rule="evenodd" clip-rule="evenodd" d="M40.6471 0.582078H40.6439H36.2522C36.2522 0.582078 31.5273 0.231567 28.0995 6.13159C24.6734 12.0315 20.6967 18.8774 20.6967 18.8774C20.6967 18.8774 16.7216 12.0314 13.2938 6.13159C9.86754 0.231691 5.14118 0.582078 5.14118 0.582078H0.750779C0.176256 0.582078 -0.176897 1.20012 0.0913707 1.69426L20.04 36.0411C20.168 36.2727 20.4141 36.4292 20.6967 36.4292C20.9821 36.4292 21.2317 36.2695 21.3579 36.0343L41.2689 1.7538C41.5971 1.26276 41.2515 0.583691 40.6471 0.582078Z" fill="#1CBBEE"/>
<path fill-rule="evenodd" clip-rule="evenodd" d="M114.676 0.582078H110.283C110.283 0.582078 105.557 0.231567 102.131 6.13159C98.7027 12.0315 94.7275 18.8774 94.7275 18.8774C94.7275 18.8774 90.7506 12.0314 87.3246 6.13159C83.8971 0.231691 79.1721 0.582078 79.1721 0.582078H74.7818C74.2073 0.582078 73.8522 1.20012 74.1203 1.69426L94.0695 36.0411C94.1989 36.2727 94.4449 36.4292 94.7275 36.4292C95.0131 36.4292 95.2607 36.2695 95.3887 36.0343L115.298 1.7538C115.628 1.26276 115.281 0.583691 114.676 0.582078Z" fill="#1CBBEE"/>
<path fill-rule="evenodd" clip-rule="evenodd" d="M57.7133 0C67.9092 0 76.1755 8.28526 76.1755 18.5058C76.1755 20.21 75.9451 21.8599 75.5143 23.4272H48.9801C50.697 26.4834 53.9639 28.5477 57.7133 28.5477C60.2951 28.5477 62.6479 27.5686 64.4248 25.9606L69.8693 32.4327C66.623 35.2838 62.3685 37.0118 57.7133 37.0118C47.517 37.0118 39.251 28.7263 39.251 18.5058C39.251 8.28538 47.5169 0 57.7133 0ZM48.1625 15.4652H67.2639C65.9777 11.4056 62.1887 8.46411 57.7132 8.46411C53.2375 8.46411 49.4486 11.4056 48.1623 15.4652H48.1625Z" fill="#1CBBEE"/>
<path d="M20.0273 45.5802V50.9979H21.0215V49.0844H21.899C22.5506 49.0844 23.0336 48.9158 23.354 48.586C23.6838 48.2559 23.8446 47.8381 23.8446 47.3469C23.8446 46.8556 23.6915 46.4452 23.3761 46.1005C23.0621 45.756 22.6013 45.5802 21.9795 45.5802H20.0273ZM21.0215 48.168V46.5112H22.0016C22.5206 46.5112 22.8282 46.8705 22.8282 47.3321C22.8282 47.7938 22.5128 48.1679 21.9288 48.1679H21.0215V48.168ZM28.0535 51.0933C28.6597 51.0933 29.1582 50.917 29.5449 50.5728C29.9329 50.2209 30.1303 49.715 30.1303 49.0552V45.5802H29.1203V48.9672C29.1203 49.7077 28.7037 50.1182 28.0535 50.1182C27.3875 50.1182 26.9851 49.7222 26.9851 48.9672V45.5802H25.9831V49.0552C25.9831 49.715 26.1802 50.2209 26.5685 50.5728C26.9568 50.917 27.4539 51.0933 28.0535 51.0933ZM36.7521 50.9979L35.3916 48.8498C36.1443 48.6078 36.5249 47.9772 36.5249 47.2736C36.5249 46.7972 36.3717 46.4012 36.0578 46.0711C35.7435 45.7413 35.2972 45.5801 34.7116 45.5801H32.7011V50.9977H33.6954V48.9671H34.3612L35.5671 50.9977H36.7524L36.7521 50.9979ZM34.7115 46.5112C35.2087 46.5112 35.5022 46.8483 35.5022 47.2808C35.5022 47.7206 35.2087 48.0652 34.6025 48.0652H33.6952V46.5111H34.7115V46.5112ZM38.9709 50.9979H39.9727V45.5802H38.9709V50.9979ZM43.6042 50.9979V48.7911H45.8278V47.8379H43.6042V46.5333H46.1417V45.5802H42.6083V50.9979H43.6042ZM48.3605 50.9979H49.3627V45.5802H48.3605V50.9979ZM55.5897 50.9979V50.0593H53.0002V48.7253H55.3925V47.7939H53.0002V46.5184H55.5897V45.5803H51.9979V50.998H55.5897V50.9979ZM60.0403 50.9979C60.8513 50.9979 61.4949 50.7558 61.9559 50.2719C62.423 49.7882 62.6583 49.1282 62.6583 48.3001C62.6583 47.4567 62.4309 46.7972 61.97 46.3131C61.5092 45.8219 60.8812 45.5801 60.0826 45.5801H57.9979V50.9977H60.0403V50.9979ZM58.9937 46.5403H60.0826C60.5736 46.5403 60.9458 46.709 61.2174 47.0389C61.4871 47.3691 61.6199 47.7795 61.6199 48.278C61.6199 48.7838 61.4808 49.2091 61.2094 49.5391C60.9397 49.8688 60.5655 50.0376 60.0763 50.0376H58.9937V46.5403ZM68.6879 50.9979L69.8938 47.3321L71.1152 50.9979H71.9058L73.7048 45.5802H72.6143L71.4953 49.2972L70.1936 45.5802H69.5875L68.314 49.2972L67.173 45.5802H66.0843L67.8893 50.9979H68.6878H68.6879ZM79.8294 50.9979L77.7589 45.5802H76.9921L74.8992 50.9979H75.9599L76.4064 49.7662H78.3224L78.769 50.9979H79.8294ZM78.0382 48.8644H76.6986L77.3722 47.0097L78.0383 48.8644H78.0382ZM82.4507 50.9979H83.4608V46.5479H85.0185V45.5802H80.8932V46.5479H82.4507V50.9979ZM90.7263 50.9979V50.0593H88.1366V48.7253H90.5291V47.7939H88.1366V46.5184H90.7263V45.5803H87.1345V50.998H90.7263V50.9979ZM97.1871 50.9979L95.8269 48.8498C96.5796 48.6078 96.9597 47.9772 96.9597 47.2736C96.9597 46.7972 96.8069 46.4012 96.4928 46.0711C96.1772 45.7413 95.7322 45.5801 95.1465 45.5801H93.1344V50.9977H94.1303V48.9671H94.7947L96.0022 50.9977H97.1874L97.1871 50.9979ZM95.1464 46.5112C95.6436 46.5112 95.9371 46.8483 95.9371 47.2808C95.9371 47.7206 95.6436 48.0652 95.0359 48.0652H94.1301V46.5111H95.1464V46.5112Z" fill="#67C2C7"/>
<path fill-rule="evenodd" clip-rule="evenodd" d="M112.685 40.2617C111.429 40.8546 110.056 41.2019 108.531 41.1895L102.888 41.1921C103.164 52.7308 112.582 61.9996 124.159 61.9996C135.706 61.9996 145.156 52.7646 145.432 41.1921L139.79 41.1895C138.266 41.2019 136.893 40.8546 135.636 40.2617C135.867 46.7727 130.664 52.1808 124.16 52.1808C117.669 52.1808 112.453 46.7655 112.684 40.2617H112.685Z" fill="#67C2C7"/>
<path fill-rule="evenodd" clip-rule="evenodd" d="M124.161 0.578125C123.878 0.578125 123.63 0.7349 123.503 0.966217L105.971 30.8524C104.996 32.5113 104.111 34.2228 103.557 36.0795L108.57 36.0822C111.589 36.0822 114.371 34.7399 115.89 32.1038L124.16 18.1306L132.431 32.1038C133.949 34.7399 136.73 36.0822 139.749 36.0822L144.764 36.0795C144.21 34.2228 143.325 32.5112 142.348 30.8524L124.817 0.966217C124.689 0.734776 124.443 0.578125 124.16 0.578125H124.161Z" fill="#1CBBEE"/>
</g>
<defs>
<clipPath id="clip0_346_57">
<rect width="145.432" height="62" fill="white"/>
</clipPath>
</defs>
</svg>
