<svg width="32" height="32" viewBox="0 0 32 32" fill="none" xmlns="http://www.w3.org/2000/svg">
<path d="M31.7868 1.65253C31.5163 1.00125 30.9987 0.483699 30.3475 0.21323C30.027 0.0766535 29.6829 0.00421127 29.3346 0H2.68083C1.97393 0 1.29598 0.280816 0.796127 0.780672C0.296271 1.28053 0.0154548 1.95848 0.0154548 2.66538C0.0154548 3.37228 0.296271 4.05023 0.796127 4.55009C1.29598 5.04994 1.97393 5.33076 2.68083 5.33076H22.9111L0.788415 27.4268C0.538593 27.6745 0.340304 27.9693 0.204987 28.2941C0.069669 28.6189 0 28.9673 0 29.3192C0 29.671 0.069669 30.0194 0.204987 30.3442C0.340304 30.669 0.538593 30.9638 0.788415 31.2116C1.0362 31.4614 1.33099 31.6597 1.65579 31.795C1.98059 31.9303 2.32897 32 2.68083 32C3.0327 32 3.38108 31.9303 3.70588 31.795C4.03068 31.6597 4.32547 31.4614 4.57325 31.2116L26.6692 9.08894V29.3192C26.6692 30.0261 26.9501 30.704 27.4499 31.2039C27.9498 31.7037 28.6277 31.9845 29.3346 31.9845C30.0415 31.9845 30.7195 31.7037 31.2193 31.2039C31.7192 30.704 32 30.0261 32 29.3192V2.66538C31.9958 2.31707 31.9233 1.97297 31.7868 1.65253V1.65253Z" fill="white"/>
</svg>
