<svg width="52" height="53" viewBox="0 0 52 53" fill="none" xmlns="http://www.w3.org/2000/svg">
<circle cx="26" cy="26.2803" r="25.5" stroke="#98A2B3"/>
<g clip-path="url(#clip0_346_153)">
<path d="M36.9784 21.7483C36.9268 20.5794 36.7378 19.7757 36.467 19.0794C36.1877 18.3402 35.7579 17.6784 35.1948 17.1283C34.6447 16.5696 33.9786 16.1355 33.2479 15.8605C32.5475 15.5897 31.7481 15.4006 30.5792 15.3491C29.4015 15.2932 29.0276 15.2803 26.0407 15.2803C23.0538 15.2803 22.6799 15.2932 21.5066 15.3447C20.3377 15.3963 19.534 15.5855 18.8379 15.8561C18.0985 16.1355 17.4367 16.5652 16.8866 17.1283C16.3279 17.6784 15.8939 18.3446 15.6188 19.0752C15.348 19.7757 15.1589 20.575 15.1074 21.744C15.0515 22.9216 15.0386 23.2955 15.0386 26.2824C15.0386 29.2693 15.0515 29.6432 15.103 30.8165C15.1546 31.9855 15.3438 32.7891 15.6146 33.4855C15.8939 34.2246 16.3279 34.8864 16.8866 35.4366C17.4367 35.9953 18.1029 36.4294 18.8335 36.7044C19.534 36.9752 20.3333 37.1642 21.5024 37.2157C22.6756 37.2674 23.0496 37.2802 26.0365 37.2802C29.0234 37.2802 29.3973 37.2674 30.5706 37.2157C31.7395 37.1642 32.5432 36.9752 33.2394 36.7044C34.7179 36.1327 35.8868 34.9638 36.4585 33.4855C36.7291 32.7849 36.9183 31.9855 36.9698 30.8165C37.0214 29.6432 37.0343 29.2693 37.0343 26.2824C37.0343 23.2955 37.0299 22.9216 36.9784 21.7483ZM34.9972 30.7306C34.9499 31.805 34.7694 32.3852 34.619 32.772C34.2493 33.7304 33.4887 34.4911 32.5303 34.8607C32.1435 35.0111 31.5591 35.1916 30.4888 35.2388C29.3285 35.2905 28.9804 35.3033 26.0451 35.3033C23.1097 35.3033 22.7573 35.2905 21.6011 35.2388C20.5267 35.1916 19.9465 35.0111 19.5597 34.8607C19.0828 34.6845 18.6487 34.4051 18.2963 34.0398C17.931 33.6831 17.6516 33.2533 17.4753 32.7763C17.3249 32.3895 17.1445 31.805 17.0973 30.7349C17.0456 29.5745 17.0328 29.2264 17.0328 26.291C17.0328 23.3556 17.0456 23.0032 17.0973 21.8472C17.1445 20.7728 17.3249 20.1926 17.4753 19.8058C17.6516 19.3287 17.931 18.8947 18.3006 18.5422C18.6572 18.1769 19.087 17.8975 19.5641 17.7214C19.9509 17.571 20.5354 17.3905 21.6055 17.3432C22.7659 17.2916 23.1141 17.2787 26.0493 17.2787C28.989 17.2787 29.337 17.2916 30.4932 17.3432C31.5676 17.3905 32.1478 17.571 32.5346 17.7214C33.0116 17.8975 33.4457 18.1769 33.7981 18.5422C34.1634 18.8989 34.4427 19.3287 34.619 19.8058C34.7694 20.1926 34.9499 20.777 34.9972 21.8472C35.0488 23.0076 35.0617 23.3556 35.0617 26.291C35.0617 29.2264 35.0488 29.5702 34.9972 30.7306Z" fill="#98A2B3"/>
<path d="M26.0409 20.6309C22.9209 20.6309 20.3894 23.1621 20.3894 26.2824C20.3894 29.4026 22.9209 31.9338 26.0409 31.9338C29.1611 31.9338 31.6924 29.4026 31.6924 26.2824C31.6924 23.1621 29.1611 20.6309 26.0409 20.6309ZM26.0409 29.9483C24.0168 29.9483 22.3749 28.3066 22.3749 26.2824C22.3749 24.2581 24.0168 22.6164 26.0409 22.6164C28.0652 22.6164 29.7069 24.2581 29.7069 26.2824C29.7069 28.3066 28.0652 29.9483 26.0409 29.9483V29.9483Z" fill="#98A2B3"/>
<path d="M33.2353 20.4073C33.2353 21.1358 32.6446 21.7266 31.9158 21.7266C31.1872 21.7266 30.5964 21.1358 30.5964 20.4073C30.5964 19.6785 31.1872 19.0879 31.9158 19.0879C32.6446 19.0879 33.2353 19.6785 33.2353 20.4073V20.4073Z" fill="#98A2B3"/>
</g>
<defs>
<clipPath id="clip0_346_153">
<rect width="22" height="22" fill="white" transform="translate(15 15.2803)"/>
</clipPath>
</defs>
</svg>
