<svg width="22" height="22" viewBox="0 0 22 22" fill="none" xmlns="http://www.w3.org/2000/svg">
<g clip-path="url(#clip0_385_539)">
<g clip-path="url(#clip1_385_539)">
<path fill-rule="evenodd" clip-rule="evenodd" d="M3.22207 18.7782C-1.07385 14.4826 -1.07409 7.51772 3.2215 3.22182C7.51711 -1.0741 14.4819 -1.07436 18.7778 3.22125C23.0738 7.51684 23.074 14.4817 18.7784 18.7776C14.4828 23.0735 7.51797 23.0738 3.22207 18.7782ZM5.16654 16.8336C8.38845 20.0552 13.6121 20.055 16.8338 16.8331C20.0555 13.6112 20.0553 8.38754 16.8334 5.16586C13.6114 1.94416 8.38782 1.94435 5.16612 5.16629C1.94444 8.3882 1.9446 13.6118 5.16654 16.8336ZM15.8614 13.9163L12.9445 10.9996L15.8612 8.08271L13.9166 6.13824L10.9999 9.05517L8.08297 6.13846L6.13849 8.08307L9.05542 10.9998L6.13871 13.9167L8.08332 15.8612L11 12.9443L13.917 15.861L15.8614 13.9163Z" fill="#E9573F"/>
</g>
</g>
<defs>
<clipPath id="clip0_385_539">
<rect width="22" height="22" fill="white"/>
</clipPath>
<clipPath id="clip1_385_539">
<rect width="22" height="22" fill="white"/>
</clipPath>
</defs>
</svg>
