<svg width="24" height="24" viewBox="0 0 24 24" fill="none" xmlns="http://www.w3.org/2000/svg">
<path d="M20.4596 9.62983C20.3299 8.27166 19.8753 6.96466 19.134 5.81926C18.3927 4.67386 17.3866 3.72373 16.2007 3.04916C15.0148 2.37458 13.6839 1.99539 12.3206 1.94362C10.9572 1.89185 9.60142 2.16903 8.36777 2.75173C7.13412 3.33443 6.05886 4.20553 5.23286 5.29141C4.40685 6.3773 3.85438 7.64607 3.62212 8.99049C3.38986 10.3349 3.48464 11.7155 3.89845 13.0156C4.31226 14.3157 5.03294 15.497 5.99959 16.4598L11.2996 21.7698C11.3926 21.8636 11.5032 21.938 11.625 21.9887C11.7469 22.0395 11.8776 22.0656 12.0096 22.0656C12.1416 22.0656 12.2723 22.0395 12.3942 21.9887C12.516 21.938 12.6266 21.8636 12.7196 21.7698L17.9996 16.4598C18.8908 15.5753 19.5739 14.5035 19.9994 13.3221C20.4249 12.1407 20.5821 10.8795 20.4596 9.62983V9.62983ZM16.5996 15.0498L11.9996 19.6498L7.39959 15.0498C6.72168 14.3719 6.20239 13.5522 5.87906 12.6496C5.55572 11.747 5.43637 10.784 5.52959 9.82983C5.62341 8.86094 5.93135 7.92499 6.43116 7.08968C6.93097 6.25436 7.61014 5.54054 8.41959 4.99983C9.48053 4.29507 10.7259 3.91913 11.9996 3.91913C13.2733 3.91913 14.5186 4.29507 15.5796 4.99983C16.3866 5.53845 17.0643 6.24911 17.5639 7.08077C18.0636 7.91243 18.3729 8.84443 18.4696 9.80983C18.5658 10.7673 18.448 11.7341 18.1246 12.6404C17.8012 13.5467 17.2803 14.3697 16.5996 15.0498V15.0498ZM13.7896 6.24983C13.6966 6.1561 13.586 6.08171 13.4642 6.03094C13.3423 5.98017 13.2116 5.95403 13.0796 5.95403C12.9476 5.95403 12.8169 5.98017 12.695 6.03094C12.5732 6.08171 12.4626 6.1561 12.3696 6.24983L8.78959 9.82983C8.60484 10.0161 8.50069 10.2675 8.49959 10.5298V12.9998C8.49959 13.265 8.60495 13.5194 8.79248 13.7069C8.98002 13.8945 9.23437 13.9998 9.49959 13.9998H11.9196C12.0512 14.0006 12.1817 13.9754 12.3035 13.9256C12.4253 13.8758 12.5361 13.8025 12.6296 13.7098L16.2096 10.1298C16.3958 9.94247 16.5004 9.68902 16.5004 9.42483C16.5004 9.16065 16.3958 8.9072 16.2096 8.71983L13.7896 6.24983ZM11.5096 11.9998H10.5096V10.9998L13.0896 8.41983L14.0896 9.41983L11.5096 11.9998Z" fill="black"/>
</svg>
