<svg width="24" height="24" viewBox="0 0 24 24" fill="none" xmlns="http://www.w3.org/2000/svg">
<path d="M17.2899 9.71L18.5899 11L6.99994 11C6.73472 11 6.48037 11.1054 6.29283 11.2929C6.10529 11.4804 5.99994 11.7348 5.99994 12C5.99994 12.2652 6.10529 12.5196 6.29283 12.7071C6.48037 12.8946 6.73472 13 6.99994 13L18.5899 13L17.2899 14.29C17.1962 14.383 17.1218 14.4936 17.071 14.6154C17.0203 14.7373 16.9941 14.868 16.9941 15C16.9941 15.132 17.0203 15.2627 17.071 15.3846C17.1218 15.5064 17.1962 15.617 17.2899 15.71C17.3829 15.8037 17.4935 15.8781 17.6154 15.9289C17.7372 15.9797 17.8679 16.0058 17.9999 16.0058C18.132 16.0058 18.2627 15.9797 18.3845 15.9289C18.5064 15.8781 18.617 15.8037 18.7099 15.71L21.7099 12.71C21.8037 12.617 21.8781 12.5064 21.9288 12.3846C21.9796 12.2627 22.0057 12.132 22.0057 12C22.0057 11.868 21.9796 11.7373 21.9288 11.6154C21.8781 11.4936 21.8037 11.383 21.7099 11.29L18.7099 8.29C18.5216 8.1017 18.2662 7.99591 17.9999 7.99591C17.7336 7.99591 17.4782 8.1017 17.2899 8.29C17.1016 8.4783 16.9958 8.7337 16.9958 9C16.9958 9.2663 17.1016 9.5217 17.2899 9.71V9.71ZM14.9999 18L14.9999 16C14.9999 15.7348 14.8946 15.4804 14.707 15.2929C14.5195 15.1054 14.2652 15 13.9999 15C13.7347 15 13.4804 15.1054 13.2928 15.2929C13.1053 15.4804 12.9999 15.7348 12.9999 16L12.9999 18C12.9999 18.2652 12.8946 18.5196 12.707 18.7071C12.5195 18.8946 12.2652 19 11.9999 19L4.99994 19C4.73472 19 4.48037 18.8946 4.29283 18.7071C4.10529 18.5196 3.99994 18.2652 3.99994 18L3.99994 6C3.99994 5.73478 4.10529 5.48043 4.29283 5.29289C4.48037 5.10536 4.73472 5 4.99994 5L11.9999 5C12.2652 5 12.5195 5.10536 12.707 5.29289C12.8946 5.48043 12.9999 5.73478 12.9999 6L12.9999 8C12.9999 8.26522 13.1053 8.51957 13.2928 8.70711C13.4804 8.89464 13.7347 9 13.9999 9C14.2652 9 14.5195 8.89464 14.707 8.70711C14.8946 8.51957 14.9999 8.26522 14.9999 8L14.9999 6C14.9999 5.20435 14.6839 4.44129 14.1213 3.87868C13.5587 3.31607 12.7956 3 11.9999 3L4.99994 3C4.20429 3 3.44123 3.31607 2.87862 3.87868C2.31601 4.44129 1.99994 5.20435 1.99994 6L1.99994 18C1.99994 18.7956 2.31601 19.5587 2.87862 20.1213C3.44123 20.6839 4.20429 21 4.99994 21L11.9999 21C12.7956 21 13.5586 20.6839 14.1213 20.1213C14.6839 19.5587 14.9999 18.7956 14.9999 18Z" fill="#98A2B3"/>
</svg>
