<svg width="25" height="24" viewBox="0 0 25 24" fill="none" xmlns="http://www.w3.org/2000/svg">
<path d="M3.0188 8H21.0188C21.284 8 21.5384 7.89464 21.7259 7.70711C21.9134 7.51957 22.0188 7.26522 22.0188 7C22.0188 6.73478 21.9134 6.48043 21.7259 6.29289C21.5384 6.10536 21.284 6 21.0188 6H3.0188C2.75358 6 2.49923 6.10536 2.31169 6.29289C2.12416 6.48043 2.0188 6.73478 2.0188 7C2.0188 7.26522 2.12416 7.51957 2.31169 7.70711C2.49923 7.89464 2.75358 8 3.0188 8V8ZM21.0188 16H3.0188C2.75358 16 2.49923 16.1054 2.31169 16.2929C2.12416 16.4804 2.0188 16.7348 2.0188 17C2.0188 17.2652 2.12416 17.5196 2.31169 17.7071C2.49923 17.8946 2.75358 18 3.0188 18H21.0188C21.284 18 21.5384 17.8946 21.7259 17.7071C21.9134 17.5196 22.0188 17.2652 22.0188 17C22.0188 16.7348 21.9134 16.4804 21.7259 16.2929C21.5384 16.1054 21.284 16 21.0188 16ZM21.0188 11H3.0188C2.75358 11 2.49923 11.1054 2.31169 11.2929C2.12416 11.4804 2.0188 11.7348 2.0188 12C2.0188 12.2652 2.12416 12.5196 2.31169 12.7071C2.49923 12.8946 2.75358 13 3.0188 13H21.0188C21.284 13 21.5384 12.8946 21.7259 12.7071C21.9134 12.5196 22.0188 12.2652 22.0188 12C22.0188 11.7348 21.9134 11.4804 21.7259 11.2929C21.5384 11.1054 21.284 11 21.0188 11Z" fill="black"/>
</svg>
