<svg width="38" height="38" viewBox="0 0 38 38" fill="none" xmlns="http://www.w3.org/2000/svg">
<circle cx="18.8452" cy="18.8452" r="18.8452" fill="#F2F4F7"/>
<path d="M19 20.0835L24.5037 25.596C24.6685 25.7608 24.8919 25.8534 25.125 25.8534C25.358 25.8534 25.5814 25.7608 25.7462 25.596C25.911 25.4313 26.0035 25.2078 26.0035 24.9748C26.0035 24.7418 25.911 24.5183 25.7462 24.3536L20.2337 18.8498L25.7462 13.3461C25.911 13.1813 26.0035 12.9578 26.0035 12.7248C26.0035 12.4918 25.911 12.2683 25.7462 12.1036C25.5814 11.9388 25.358 11.8462 25.125 11.8462C24.8919 11.8462 24.6685 11.9388 24.5037 12.1036L19 17.616L13.4962 12.1035C13.4149 12.0215 13.3181 11.9564 13.2115 11.912C13.1048 11.8676 12.9905 11.8447 12.875 11.8447C12.7594 11.8447 12.6451 11.8676 12.5385 11.912C12.4318 11.9564 12.3351 12.0215 12.2537 12.1035C12.1717 12.1849 12.1066 12.2817 12.0622 12.3883C12.0178 12.4949 11.9949 12.6093 11.9949 12.7248C11.9949 12.8403 12.0178 12.9547 12.0622 13.0613C12.1066 13.1679 12.1717 13.2647 12.2537 13.346L17.7662 18.8498L12.2537 24.3536C12.1717 24.4349 12.1066 24.5317 12.0622 24.6383C12.0178 24.7449 11.9949 24.8593 11.9949 24.9748C11.9949 25.0903 12.0178 25.2047 12.0622 25.3113C12.1066 25.4179 12.1717 25.5147 12.2537 25.596C12.3351 25.6781 12.4318 25.7432 12.5385 25.7876C12.6451 25.832 12.7594 25.8549 12.875 25.8549C12.9905 25.8549 13.1048 25.832 13.2115 25.7876C13.3181 25.7432 13.4149 25.6781 13.4962 25.596L19 20.0835Z" fill="black"/>
</svg>
