<svg width="25" height="24" viewBox="0 0 25 24" fill="none" xmlns="http://www.w3.org/2000/svg">
<path d="M12.9423 22.0005C8.89587 22.0028 5.24681 19.5664 3.69798 15.8281C2.14916 12.0898 3.00586 7.78655 5.86832 4.92647C8.39561 2.39917 12.0792 1.41215 15.5316 2.3372C18.9839 3.26226 21.6805 5.95885 22.6056 9.4112C23.5306 12.8636 22.5436 16.5472 20.0163 19.0745C18.1438 20.9555 15.5965 22.0091 12.9423 22.0005ZM4.94232 12.1725C4.98963 16.5737 8.58343 20.11 12.9849 20.0865C17.3863 20.0627 20.9419 16.488 20.9419 12.0865C20.9419 7.68497 17.3863 4.11024 12.9849 4.08647C8.58343 4.06293 4.98963 7.59923 4.94232 12.0005V12.1725ZM10.3513 16.0005L8.94232 14.5905L11.5323 12.0005L8.94232 9.41047L10.3523 8.00047L12.9423 10.5905L15.5323 8.00047L16.9423 9.41047L14.3523 12.0005L16.9423 14.5905L15.5333 16.0005L12.9423 13.4105L10.3523 16.0005H10.3513Z" fill="#A8A8A8"/>
</svg>
