<svg width="83" height="82" viewBox="0 0 83 82" fill="none" xmlns="http://www.w3.org/2000/svg">
<path d="M52.652 27.839L35.063 45.469L28.298 38.704C27.9305 38.2748 27.4782 37.9262 26.9695 37.6801C26.4608 37.434 25.9068 37.2957 25.3421 37.2739C24.7775 37.2521 24.2144 37.3473 23.6883 37.5534C23.1622 37.7595 22.6843 38.0722 22.2847 38.4717C21.8852 38.8713 21.5725 39.3491 21.3664 39.8753C21.1603 40.4014 21.0651 40.9645 21.0869 41.5291C21.1088 42.0938 21.247 42.6478 21.4931 43.1565C21.7392 43.6651 22.0878 44.1174 22.517 44.485L32.152 54.161C32.5351 54.541 32.9895 54.8416 33.489 55.0456C33.9885 55.2497 34.5234 55.3531 35.063 55.35C36.1386 55.3455 37.1693 54.9184 37.933 54.161L58.433 33.661C58.8173 33.2798 59.1223 32.8264 59.3305 32.3268C59.5386 31.8271 59.6458 31.2912 59.6458 30.75C59.6458 30.2087 59.5386 29.6728 59.3305 29.1732C59.1223 28.6736 58.8173 28.2201 58.433 27.839C57.6648 27.0754 56.6257 26.6467 55.5425 26.6467C54.4594 26.6467 53.4202 27.0754 52.652 27.839ZM41.5 0C33.391 0 25.4641 2.40461 18.7216 6.90974C11.9792 11.4149 6.72415 17.8182 3.62096 25.31C0.517765 32.8017 -0.294172 41.0455 1.28782 48.9987C2.86982 56.9519 6.77469 64.2574 12.5086 69.9914C18.2426 75.7253 25.5481 79.6302 33.5013 81.2122C41.4545 82.7942 49.6983 81.9822 57.19 78.879C64.6818 75.7758 71.0851 70.5208 75.5903 63.7784C80.0954 57.0359 82.5 49.109 82.5 41C82.5 35.6158 81.4395 30.2843 79.3791 25.31C77.3186 20.3356 74.2986 15.8158 70.4914 12.0086C66.6842 8.20142 62.1644 5.18138 57.19 3.12094C52.2157 1.0605 46.8842 0 41.5 0ZM41.5 73.8C35.0128 73.8 28.6712 71.8763 23.2773 68.2722C17.8834 64.6681 13.6793 59.5454 11.1968 53.552C8.71422 47.5586 8.06467 40.9636 9.33026 34.601C10.5959 28.2385 13.7198 22.3941 18.3069 17.8069C22.8941 13.2197 28.7385 10.0958 35.1011 8.83024C41.4636 7.56465 48.0586 8.2142 54.052 10.6967C60.0454 13.1793 65.1681 17.3834 68.7722 22.7773C72.3763 28.1712 74.3 34.5128 74.3 41C74.3 49.6991 70.8443 58.0419 64.6931 64.1931C58.5419 70.3443 50.1991 73.8 41.5 73.8Z" fill="#1CBBEE"/>
</svg>
