<svg width="82" height="82" viewBox="0 0 82 82" fill="none" xmlns="http://www.w3.org/2000/svg">
<path d="M78.5834 42.7087V59.792C78.5834 60.6981 78.2234 61.5672 77.5827 62.2079C76.9419 62.8487 76.0729 63.2087 75.1667 63.2087H71.75C71.75 65.9271 70.6701 68.5343 68.7479 70.4565C66.8256 72.3787 64.2185 73.4587 61.5 73.4587C58.7816 73.4587 56.1744 72.3787 54.2522 70.4565C52.3299 68.5343 51.25 65.9271 51.25 63.2087H30.75C30.75 65.9271 29.6701 68.5343 27.7479 70.4565C25.8256 72.3787 23.2185 73.4587 20.5 73.4587C17.7816 73.4587 15.1744 72.3787 13.2522 70.4565C11.33 68.5343 10.25 65.9271 10.25 63.2087H6.83338C5.92722 63.2087 5.05818 62.8487 4.41743 62.2079C3.77668 61.5672 3.41671 60.6981 3.41671 59.792V18.792C3.41671 16.0735 4.49662 13.4664 6.41886 11.5441C8.34111 9.6219 10.9482 8.54199 13.6667 8.54199H44.4167C47.1352 8.54199 49.7423 9.6219 51.6646 11.5441C53.5868 13.4664 54.6667 16.0735 54.6667 18.792V25.6253H61.5C63.0913 25.6253 64.6607 25.9958 66.084 26.7074C67.5072 27.4191 68.7453 28.4523 69.7 29.7253L77.9 40.6587C78 40.8072 78.0804 40.9679 78.1392 41.137L78.3442 41.5128C78.495 41.8939 78.576 42.2989 78.5834 42.7087V42.7087ZM23.9167 63.2087C23.9167 62.5329 23.7163 61.8723 23.3409 61.3105C22.9655 60.7486 22.4319 60.3107 21.8075 60.0521C21.1832 59.7935 20.4963 59.7258 19.8335 59.8576C19.1707 59.9895 18.5619 60.3149 18.0841 60.7927C17.6063 61.2705 17.2809 61.8793 17.149 62.5421C17.0172 63.2049 17.0849 63.8918 17.3435 64.5162C17.6021 65.1405 18.04 65.6741 18.6018 66.0495C19.1637 66.4249 19.8243 66.6253 20.5 66.6253C21.4062 66.6253 22.2752 66.2654 22.916 65.6246C23.5567 64.9839 23.9167 64.1148 23.9167 63.2087ZM47.8334 18.792C47.8334 17.8858 47.4734 17.0168 46.8327 16.376C46.1919 15.7353 45.3229 15.3753 44.4167 15.3753H13.6667C12.7606 15.3753 11.8915 15.7353 11.2508 16.376C10.61 17.0168 10.25 17.8858 10.25 18.792V56.3753H12.915C13.8757 55.3184 15.0467 54.4739 16.353 53.896C17.6592 53.3181 19.0717 53.0195 20.5 53.0195C21.9284 53.0195 23.3409 53.3181 24.6471 53.896C25.9533 54.4739 27.1243 55.3184 28.085 56.3753H47.8334V18.792ZM54.6667 39.292H68.3334L64.2334 33.8253C63.9151 33.401 63.5024 33.0566 63.028 32.8194C62.5536 32.5822 62.0305 32.4587 61.5 32.4587H54.6667V39.292ZM64.9167 63.2087C64.9167 62.5329 64.7163 61.8723 64.3409 61.3105C63.9655 60.7486 63.4319 60.3107 62.8075 60.0521C62.1832 59.7935 61.4963 59.7258 60.8335 59.8576C60.1707 59.9895 59.5619 60.3149 59.0841 60.7927C58.6063 61.2705 58.2809 61.8793 58.149 62.5421C58.0172 63.2049 58.0849 63.8918 58.3435 64.5162C58.6021 65.1405 59.04 65.6741 59.6018 66.0495C60.1637 66.4249 60.8243 66.6253 61.5 66.6253C62.4062 66.6253 63.2752 66.2654 63.916 65.6246C64.5567 64.9839 64.9167 64.1148 64.9167 63.2087ZM71.75 46.1253H54.6667V55.6237C56.6831 53.8216 59.33 52.8893 62.0307 53.0301C64.7314 53.1709 67.267 54.3733 69.085 56.3753H71.75V46.1253Z" fill="#1CBBEE"/>
</svg>
