<svg width="20" height="20" viewBox="0 0 20 20" fill="none" xmlns="http://www.w3.org/2000/svg">
<path d="M10.8725 10.8718L18.6621 10.8779C18.8952 10.8779 19.1186 10.7854 19.2834 10.6206C19.4482 10.4558 19.5407 10.2324 19.5407 9.99936C19.5407 9.76635 19.4482 9.54288 19.2834 9.37811C19.1186 9.21335 18.8952 9.12078 18.6621 9.12078L10.8725 9.12697L10.8787 1.33731C10.8787 1.10429 10.7861 0.880822 10.6213 0.716056C10.4566 0.55129 10.2331 0.458726 10.0001 0.458726C9.76707 0.458726 9.5436 0.55129 9.37883 0.716056C9.21406 0.880822 9.1215 1.10429 9.1215 1.33731L9.12769 9.12697L1.33802 9.12078C1.22251 9.12031 1.10805 9.14271 1.00124 9.1867C0.894436 9.23068 0.797394 9.29538 0.715716 9.37706C0.634038 9.45874 0.56934 9.55578 0.525355 9.66259C0.48137 9.76939 0.458969 9.88385 0.459442 9.99936C0.458969 10.1149 0.481369 10.2293 0.525354 10.3361C0.569339 10.4429 0.634038 10.54 0.715716 10.6217C0.797394 10.7033 0.894436 10.768 1.00124 10.812C1.10805 10.856 1.22251 10.8784 1.33802 10.8779L9.12769 10.8718L9.1215 18.6614C9.12103 18.7769 9.14343 18.8914 9.18741 18.9982C9.2314 19.105 9.2961 19.202 9.37777 19.2837C9.45945 19.3654 9.55649 19.4301 9.6633 19.4741C9.77011 19.5181 9.88457 19.5405 10.0001 19.54C10.1156 19.5405 10.23 19.5181 10.3369 19.4741C10.4437 19.4301 10.5407 19.3654 10.6224 19.2837C10.7041 19.202 10.7688 19.105 10.8127 18.9982C10.8567 18.8914 10.8791 18.7769 10.8787 18.6614L10.8725 10.8718Z" fill="#1CBBEE"/>
</svg>
